<mxfile host="app.diagrams.net" modified="2024-01-30T06:40:11.808Z" agent="Mozilla/5.0 (Macintosh; Intel Mac OS X 10_15_7) AppleWebKit/537.36 (KHTML, like Gecko) Chrome/120.0.0.0 Safari/537.36" etag="mhAvsqp0OZnogU_htuB8" version="23.0.2" type="github">
  <diagram id="prtHgNgQTEPvFCAcTncT" name="Page-1">
    <mxGraphModel dx="2074" dy="1267" grid="1" gridSize="10" guides="1" tooltips="1" connect="1" arrows="1" fold="1" page="1" pageScale="1" pageWidth="827" pageHeight="1169" math="0" shadow="0">
      <root>
        <mxCell id="0" />
        <mxCell id="1" parent="0" />
        <mxCell id="ZryuaU5iVa6FWDOFprGJ-16" style="edgeStyle=orthogonalEdgeStyle;rounded=0;orthogonalLoop=1;jettySize=auto;html=1;entryX=0.5;entryY=0;entryDx=0;entryDy=0;labelBackgroundColor=none;strokeColor=#788AA3;fontColor=default;" edge="1" parent="1" source="ZryuaU5iVa6FWDOFprGJ-17" target="ZryuaU5iVa6FWDOFprGJ-20">
          <mxGeometry relative="1" as="geometry" />
        </mxCell>
        <mxCell id="ZryuaU5iVa6FWDOFprGJ-17" value="删除准入缓存数据" style="rounded=1;whiteSpace=wrap;html=1;labelBackgroundColor=none;fillColor=#B2C9AB;strokeColor=#788AA3;fontColor=#46495D;" vertex="1" parent="1">
          <mxGeometry x="455.00000000000045" y="100" width="100" height="60" as="geometry" />
        </mxCell>
        <mxCell id="ZryuaU5iVa6FWDOFprGJ-18" value="否" style="edgeStyle=orthogonalEdgeStyle;rounded=0;orthogonalLoop=1;jettySize=auto;html=1;labelBackgroundColor=none;strokeColor=#788AA3;fontColor=default;" edge="1" parent="1" source="ZryuaU5iVa6FWDOFprGJ-20" target="ZryuaU5iVa6FWDOFprGJ-21">
          <mxGeometry relative="1" as="geometry" />
        </mxCell>
        <mxCell id="ZryuaU5iVa6FWDOFprGJ-19" value="" style="edgeStyle=orthogonalEdgeStyle;rounded=0;orthogonalLoop=1;jettySize=auto;html=1;labelBackgroundColor=none;strokeColor=#788AA3;fontColor=default;" edge="1" parent="1" source="ZryuaU5iVa6FWDOFprGJ-20" target="ZryuaU5iVa6FWDOFprGJ-22">
          <mxGeometry relative="1" as="geometry" />
        </mxCell>
        <mxCell id="ZryuaU5iVa6FWDOFprGJ-26" value="是" style="edgeLabel;html=1;align=center;verticalAlign=middle;resizable=0;points=[];labelBackgroundColor=none;fontColor=#46495D;" vertex="1" connectable="0" parent="ZryuaU5iVa6FWDOFprGJ-19">
          <mxGeometry x="-0.425" y="3" relative="1" as="geometry">
            <mxPoint x="-3" as="offset" />
          </mxGeometry>
        </mxCell>
        <mxCell id="ZryuaU5iVa6FWDOFprGJ-20" value="渠道是否能重复进件" style="rhombus;whiteSpace=wrap;html=1;labelBackgroundColor=none;fillColor=#B2C9AB;strokeColor=#788AA3;fontColor=#46495D;" vertex="1" parent="1">
          <mxGeometry x="430.00000000000045" y="200" width="150" height="80" as="geometry" />
        </mxCell>
        <mxCell id="ZryuaU5iVa6FWDOFprGJ-21" value="该平台设置不可重复进件" style="whiteSpace=wrap;labelBackgroundColor=none;fillColor=#B2C9AB;strokeColor=#788AA3;fontColor=#46495D;" vertex="1" parent="1">
          <mxGeometry x="240.00000000000045" y="210" width="120" height="60" as="geometry" />
        </mxCell>
        <mxCell id="ZryuaU5iVa6FWDOFprGJ-24" value="" style="edgeStyle=orthogonalEdgeStyle;rounded=0;orthogonalLoop=1;jettySize=auto;html=1;labelBackgroundColor=none;strokeColor=#788AA3;fontColor=default;" edge="1" parent="1" source="ZryuaU5iVa6FWDOFprGJ-22" target="ZryuaU5iVa6FWDOFprGJ-23">
          <mxGeometry relative="1" as="geometry" />
        </mxCell>
        <mxCell id="ZryuaU5iVa6FWDOFprGJ-25" value="否" style="edgeLabel;html=1;align=center;verticalAlign=middle;resizable=0;points=[];labelBackgroundColor=none;fontColor=#46495D;" vertex="1" connectable="0" parent="ZryuaU5iVa6FWDOFprGJ-24">
          <mxGeometry x="-0.05" y="-2" relative="1" as="geometry">
            <mxPoint as="offset" />
          </mxGeometry>
        </mxCell>
        <mxCell id="ZryuaU5iVa6FWDOFprGJ-22" value="cash_out_apply表是否有数据" style="rhombus;whiteSpace=wrap;labelBackgroundColor=none;fillColor=#B2C9AB;strokeColor=#788AA3;fontColor=#46495D;" vertex="1" parent="1">
          <mxGeometry x="405.00000000000045" y="320" width="200" height="90" as="geometry" />
        </mxCell>
        <mxCell id="ZryuaU5iVa6FWDOFprGJ-28" value="" style="edgeStyle=orthogonalEdgeStyle;rounded=0;orthogonalLoop=1;jettySize=auto;html=1;strokeColor=#788AA3;fontColor=#46495D;fillColor=#B2C9AB;" edge="1" parent="1" source="ZryuaU5iVa6FWDOFprGJ-23" target="ZryuaU5iVa6FWDOFprGJ-27">
          <mxGeometry relative="1" as="geometry" />
        </mxCell>
        <mxCell id="ZryuaU5iVa6FWDOFprGJ-23" value="cash_out_apply表写入新数据" style="whiteSpace=wrap;html=1;labelBackgroundColor=none;fillColor=#fff2cc;strokeColor=#d6b656;" vertex="1" parent="1">
          <mxGeometry x="445.00000000000045" y="460" width="120" height="60" as="geometry" />
        </mxCell>
        <mxCell id="ZryuaU5iVa6FWDOFprGJ-30" value="" style="edgeStyle=orthogonalEdgeStyle;rounded=0;orthogonalLoop=1;jettySize=auto;html=1;strokeColor=#788AA3;fontColor=#46495D;fillColor=#B2C9AB;" edge="1" parent="1" source="ZryuaU5iVa6FWDOFprGJ-27" target="ZryuaU5iVa6FWDOFprGJ-29">
          <mxGeometry relative="1" as="geometry" />
        </mxCell>
        <mxCell id="ZryuaU5iVa6FWDOFprGJ-27" value="信贷通知类短信黑灰名单 表写入数据" style="whiteSpace=wrap;fillColor=#d5e8d4;strokeColor=#82b366;labelBackgroundColor=none;" vertex="1" parent="1">
          <mxGeometry x="402.5" y="585" width="205" height="60" as="geometry" />
        </mxCell>
        <mxCell id="ZryuaU5iVa6FWDOFprGJ-32" value="" style="edgeStyle=orthogonalEdgeStyle;rounded=0;orthogonalLoop=1;jettySize=auto;html=1;strokeColor=#788AA3;fontColor=#46495D;fillColor=#B2C9AB;" edge="1" parent="1" source="ZryuaU5iVa6FWDOFprGJ-29" target="ZryuaU5iVa6FWDOFprGJ-31">
          <mxGeometry relative="1" as="geometry" />
        </mxCell>
        <mxCell id="ZryuaU5iVa6FWDOFprGJ-33" value="否" style="edgeLabel;html=1;align=center;verticalAlign=middle;resizable=0;points=[];fontColor=#46495D;" vertex="1" connectable="0" parent="ZryuaU5iVa6FWDOFprGJ-32">
          <mxGeometry x="-0.1721" y="1" relative="1" as="geometry">
            <mxPoint x="1" as="offset" />
          </mxGeometry>
        </mxCell>
        <mxCell id="ZryuaU5iVa6FWDOFprGJ-35" value="" style="edgeStyle=orthogonalEdgeStyle;rounded=0;orthogonalLoop=1;jettySize=auto;html=1;strokeColor=#788AA3;fontColor=#46495D;fillColor=#B2C9AB;" edge="1" parent="1" source="ZryuaU5iVa6FWDOFprGJ-29" target="ZryuaU5iVa6FWDOFprGJ-34">
          <mxGeometry relative="1" as="geometry" />
        </mxCell>
        <mxCell id="ZryuaU5iVa6FWDOFprGJ-36" value="是" style="edgeLabel;html=1;align=center;verticalAlign=middle;resizable=0;points=[];fontColor=#46495D;" vertex="1" connectable="0" parent="ZryuaU5iVa6FWDOFprGJ-35">
          <mxGeometry x="-0.1333" y="1" relative="1" as="geometry">
            <mxPoint as="offset" />
          </mxGeometry>
        </mxCell>
        <mxCell id="ZryuaU5iVa6FWDOFprGJ-29" value="apply_status是否为空或NONE" style="rhombus;whiteSpace=wrap;fillColor=#d5e8d4;strokeColor=#82b366;labelBackgroundColor=none;" vertex="1" parent="1">
          <mxGeometry x="417.5" y="690" width="175" height="80" as="geometry" />
        </mxCell>
        <mxCell id="ZryuaU5iVa6FWDOFprGJ-31" value="返回数据" style="whiteSpace=wrap;html=1;fillColor=#d5e8d4;strokeColor=#82b366;labelBackgroundColor=none;" vertex="1" parent="1">
          <mxGeometry x="700" y="700" width="120" height="60" as="geometry" />
        </mxCell>
        <mxCell id="ZryuaU5iVa6FWDOFprGJ-38" value="" style="edgeStyle=orthogonalEdgeStyle;rounded=0;orthogonalLoop=1;jettySize=auto;html=1;strokeColor=#788AA3;fontColor=#46495D;fillColor=#B2C9AB;" edge="1" parent="1" source="ZryuaU5iVa6FWDOFprGJ-34" target="ZryuaU5iVa6FWDOFprGJ-37">
          <mxGeometry relative="1" as="geometry" />
        </mxCell>
        <mxCell id="ZryuaU5iVa6FWDOFprGJ-34" value="进行授信" style="whiteSpace=wrap;html=1;fillColor=#f8cecc;strokeColor=#b85450;labelBackgroundColor=none;" vertex="1" parent="1">
          <mxGeometry x="445" y="830" width="120" height="60" as="geometry" />
        </mxCell>
        <mxCell id="ZryuaU5iVa6FWDOFprGJ-40" value="" style="edgeStyle=orthogonalEdgeStyle;rounded=0;orthogonalLoop=1;jettySize=auto;html=1;strokeColor=#788AA3;fontColor=#46495D;fillColor=#B2C9AB;" edge="1" parent="1" source="ZryuaU5iVa6FWDOFprGJ-37" target="ZryuaU5iVa6FWDOFprGJ-39">
          <mxGeometry relative="1" as="geometry" />
        </mxCell>
        <mxCell id="ZryuaU5iVa6FWDOFprGJ-37" value="查询风控个人产品信息" style="whiteSpace=wrap;html=1;fillColor=#d5e8d4;strokeColor=#82b366;labelBackgroundColor=none;" vertex="1" parent="1">
          <mxGeometry x="445" y="940" width="120" height="60" as="geometry" />
        </mxCell>
        <mxCell id="ZryuaU5iVa6FWDOFprGJ-42" value="" style="edgeStyle=orthogonalEdgeStyle;rounded=0;orthogonalLoop=1;jettySize=auto;html=1;strokeColor=#788AA3;fontColor=#46495D;fillColor=#B2C9AB;" edge="1" parent="1" source="ZryuaU5iVa6FWDOFprGJ-39" target="ZryuaU5iVa6FWDOFprGJ-41">
          <mxGeometry relative="1" as="geometry" />
        </mxCell>
        <mxCell id="ZryuaU5iVa6FWDOFprGJ-39" value="查询费率信息" style="whiteSpace=wrap;html=1;fillColor=#d5e8d4;strokeColor=#82b366;labelBackgroundColor=none;" vertex="1" parent="1">
          <mxGeometry x="445" y="1050" width="120" height="60" as="geometry" />
        </mxCell>
        <mxCell id="ZryuaU5iVa6FWDOFprGJ-46" value="" style="edgeStyle=orthogonalEdgeStyle;rounded=0;orthogonalLoop=1;jettySize=auto;html=1;strokeColor=#788AA3;fontColor=#46495D;fillColor=#B2C9AB;" edge="1" parent="1" source="ZryuaU5iVa6FWDOFprGJ-41" target="ZryuaU5iVa6FWDOFprGJ-45">
          <mxGeometry relative="1" as="geometry" />
        </mxCell>
        <mxCell id="ZryuaU5iVa6FWDOFprGJ-41" value="组装个人贷/现金贷产品信息，初始化期数、初始化用户产品配置数据" style="whiteSpace=wrap;html=1;fillColor=#d5e8d4;strokeColor=#82b366;labelBackgroundColor=none;" vertex="1" parent="1">
          <mxGeometry x="407.5" y="1169" width="195" height="60" as="geometry" />
        </mxCell>
        <mxCell id="ZryuaU5iVa6FWDOFprGJ-48" value="" style="edgeStyle=orthogonalEdgeStyle;rounded=0;orthogonalLoop=1;jettySize=auto;html=1;strokeColor=#788AA3;fontColor=#46495D;fillColor=#B2C9AB;" edge="1" parent="1" source="ZryuaU5iVa6FWDOFprGJ-45" target="ZryuaU5iVa6FWDOFprGJ-47">
          <mxGeometry relative="1" as="geometry" />
        </mxCell>
        <mxCell id="ZryuaU5iVa6FWDOFprGJ-49" value="否" style="edgeLabel;html=1;align=center;verticalAlign=middle;resizable=0;points=[];fontColor=#46495D;" vertex="1" connectable="0" parent="ZryuaU5iVa6FWDOFprGJ-48">
          <mxGeometry x="-0.0673" y="3" relative="1" as="geometry">
            <mxPoint x="-3" as="offset" />
          </mxGeometry>
        </mxCell>
        <mxCell id="ZryuaU5iVa6FWDOFprGJ-45" value="用户在手机号+身份证号维度在Application2表是否有&lt;br&gt;授信成功或预授信成功的记录" style="rhombus;whiteSpace=wrap;html=1;fillColor=#d5e8d4;strokeColor=#82b366;labelBackgroundColor=none;" vertex="1" parent="1">
          <mxGeometry x="346.25" y="1280" width="317.5" height="110" as="geometry" />
        </mxCell>
        <mxCell id="ZryuaU5iVa6FWDOFprGJ-51" value="" style="edgeStyle=orthogonalEdgeStyle;rounded=0;orthogonalLoop=1;jettySize=auto;html=1;strokeColor=#788AA3;fontColor=#46495D;fillColor=#B2C9AB;" edge="1" parent="1" source="ZryuaU5iVa6FWDOFprGJ-47" target="ZryuaU5iVa6FWDOFprGJ-50">
          <mxGeometry relative="1" as="geometry" />
        </mxCell>
        <mxCell id="ZryuaU5iVa6FWDOFprGJ-47" value="现金贷授信" style="whiteSpace=wrap;html=1;fillColor=#d5e8d4;strokeColor=#82b366;labelBackgroundColor=none;" vertex="1" parent="1">
          <mxGeometry x="445" y="1440" width="120" height="60" as="geometry" />
        </mxCell>
        <mxCell id="ZryuaU5iVa6FWDOFprGJ-53" value="" style="edgeStyle=orthogonalEdgeStyle;rounded=0;orthogonalLoop=1;jettySize=auto;html=1;strokeColor=#788AA3;fontColor=#46495D;fillColor=#B2C9AB;" edge="1" parent="1" source="ZryuaU5iVa6FWDOFprGJ-50" target="ZryuaU5iVa6FWDOFprGJ-52">
          <mxGeometry relative="1" as="geometry" />
        </mxCell>
        <mxCell id="ZryuaU5iVa6FWDOFprGJ-50" value="ApplicationLog表写入数据" style="whiteSpace=wrap;fillColor=#fad9d5;strokeColor=#ae4132;labelBackgroundColor=none;" vertex="1" parent="1">
          <mxGeometry x="445" y="1550" width="120" height="60" as="geometry" />
        </mxCell>
        <mxCell id="ZryuaU5iVa6FWDOFprGJ-55" value="" style="edgeStyle=orthogonalEdgeStyle;rounded=0;orthogonalLoop=1;jettySize=auto;html=1;strokeColor=#788AA3;fontColor=#46495D;fillColor=#B2C9AB;" edge="1" parent="1" source="ZryuaU5iVa6FWDOFprGJ-52" target="ZryuaU5iVa6FWDOFprGJ-54">
          <mxGeometry relative="1" as="geometry" />
        </mxCell>
        <mxCell id="ZryuaU5iVa6FWDOFprGJ-52" value="请求风控进行二一致、三一致校验" style="whiteSpace=wrap;fillColor=#d5e8d4;strokeColor=#82b366;labelBackgroundColor=none;" vertex="1" parent="1">
          <mxGeometry x="445" y="1660" width="120" height="60" as="geometry" />
        </mxCell>
        <mxCell id="ZryuaU5iVa6FWDOFprGJ-57" value="" style="edgeStyle=orthogonalEdgeStyle;rounded=0;orthogonalLoop=1;jettySize=auto;html=1;strokeColor=#788AA3;fontColor=#46495D;fillColor=#B2C9AB;" edge="1" parent="1" source="ZryuaU5iVa6FWDOFprGJ-54" target="ZryuaU5iVa6FWDOFprGJ-56">
          <mxGeometry relative="1" as="geometry" />
        </mxCell>
        <mxCell id="ZryuaU5iVa6FWDOFprGJ-54" value="通过则往Person表写入数据" style="whiteSpace=wrap;fillColor=#fad9d5;strokeColor=#ae4132;labelBackgroundColor=none;" vertex="1" parent="1">
          <mxGeometry x="645" y="1660" width="120" height="60" as="geometry" />
        </mxCell>
        <mxCell id="ZryuaU5iVa6FWDOFprGJ-56" value="调用户中心接口进行Person表和credit_user表的绑定" style="whiteSpace=wrap;fillColor=#fad9d5;strokeColor=#ae4132;labelBackgroundColor=none;" vertex="1" parent="1">
          <mxGeometry x="845" y="1660" width="120" height="60" as="geometry" />
        </mxCell>
      </root>
    </mxGraphModel>
  </diagram>
</mxfile>
